<?xml version="1.0" encoding="UTF-8" standalone="no"?>
<!DOCTYPE svg PUBLIC "-//W3C//DTD SVG 1.1//EN"
 "http://www.w3.org/Graphics/SVG/1.1/DTD/svg11.dtd">
<!-- Generated by graphviz version 2.43.0 (0)
 -->
<!-- Title: %3 Pages: 1 -->
<svg width="1718pt" height="548pt"
 viewBox="0.00 0.00 1718.32 548.00" xmlns="http://www.w3.org/2000/svg" xmlns:xlink="http://www.w3.org/1999/xlink">
<g id="graph0" class="graph" transform="scale(1 1) rotate(0) translate(4 544)">
<title>%3</title>
<polygon fill="white" stroke="transparent" points="-4,4 -4,-544 1714.32,-544 1714.32,4 -4,4"/>
<!-- [root] aws_db_instance.alpha (expand) -->
<g id="node1" class="node">
<title>[root] aws_db_instance.alpha (expand)</title>
<polygon fill="none" stroke="black" points="539,-396 360,-396 360,-360 539,-360 539,-396"/>
<text text-anchor="middle" x="449.5" y="-374.3" font-family="Times,serif" font-size="14.00">aws_db_instance.alpha</text>
</g>
<!-- [root] aws_db_parameter_group.alpha (expand) -->
<g id="node2" class="node">
<title>[root] aws_db_parameter_group.alpha (expand)</title>
<polygon fill="none" stroke="black" points="243,-324 0,-324 0,-288 243,-288 243,-324"/>
<text text-anchor="middle" x="121.5" y="-302.3" font-family="Times,serif" font-size="14.00">aws_db_parameter_group.alpha</text>
</g>
<!-- [root] aws_db_instance.alpha (expand)&#45;&gt;[root] aws_db_parameter_group.alpha (expand) -->
<g id="edge1" class="edge">
<title>[root] aws_db_instance.alpha (expand)&#45;&gt;[root] aws_db_parameter_group.alpha (expand)</title>
<path fill="none" stroke="black" d="M369.68,-359.97C321.87,-349.76 260.96,-336.76 211.45,-326.2"/>
<polygon fill="black" stroke="black" points="211.9,-322.71 201.39,-324.05 210.44,-329.56 211.9,-322.71"/>
</g>
<!-- [root] aws_db_subnet_group.alpha (expand) -->
<g id="node3" class="node">
<title>[root] aws_db_subnet_group.alpha (expand)</title>
<polygon fill="none" stroke="black" points="739,-324 522,-324 522,-288 739,-288 739,-324"/>
<text text-anchor="middle" x="630.5" y="-302.3" font-family="Times,serif" font-size="14.00">aws_db_subnet_group.alpha</text>
</g>
<!-- [root] aws_db_instance.alpha (expand)&#45;&gt;[root] aws_db_subnet_group.alpha (expand) -->
<g id="edge2" class="edge">
<title>[root] aws_db_instance.alpha (expand)&#45;&gt;[root] aws_db_subnet_group.alpha (expand)</title>
<path fill="none" stroke="black" d="M493.78,-359.88C518.85,-350.18 550.4,-337.98 576.87,-327.74"/>
<polygon fill="black" stroke="black" points="578.3,-330.94 586.37,-324.07 575.78,-324.41 578.3,-330.94"/>
</g>
<!-- [root] aws_security_group.alpha_rds (expand) -->
<g id="node15" class="node">
<title>[root] aws_security_group.alpha_rds (expand)</title>
<polygon fill="none" stroke="black" points="604,-252 373,-252 373,-216 604,-216 604,-252"/>
<text text-anchor="middle" x="488.5" y="-230.3" font-family="Times,serif" font-size="14.00">aws_security_group.alpha_rds</text>
</g>
<!-- [root] aws_db_instance.alpha (expand)&#45;&gt;[root] aws_security_group.alpha_rds (expand) -->
<g id="edge3" class="edge">
<title>[root] aws_db_instance.alpha (expand)&#45;&gt;[root] aws_security_group.alpha_rds (expand)</title>
<path fill="none" stroke="black" d="M454.2,-359.87C460.88,-335.56 473.17,-290.82 481.08,-262.01"/>
<polygon fill="black" stroke="black" points="484.51,-262.76 483.78,-252.19 477.76,-260.91 484.51,-262.76"/>
</g>
<!-- [root] provider[&quot;registry.terraform.io/hashicorp/aws&quot;] -->
<g id="node26" class="node">
<title>[root] provider[&quot;registry.terraform.io/hashicorp/aws&quot;]</title>
<polygon fill="none" stroke="black" points="452.5,-108 127.24,-90 452.5,-72 777.76,-90 452.5,-108"/>
<text text-anchor="middle" x="452.5" y="-86.3" font-family="Times,serif" font-size="14.00">provider[&quot;registry.terraform.io/hashicorp/aws&quot;]</text>
</g>
<!-- [root] aws_db_parameter_group.alpha (expand)&#45;&gt;[root] provider[&quot;registry.terraform.io/hashicorp/aws&quot;] -->
<g id="edge4" class="edge">
<title>[root] aws_db_parameter_group.alpha (expand)&#45;&gt;[root] provider[&quot;registry.terraform.io/hashicorp/aws&quot;]</title>
<path fill="none" stroke="black" d="M120.63,-287.88C120.56,-268.29 123.4,-236.3 140.5,-216 194.16,-152.3 284.97,-120.77 354.82,-105.35"/>
<polygon fill="black" stroke="black" points="355.92,-108.69 364.97,-103.19 354.46,-101.85 355.92,-108.69"/>
</g>
<!-- [root] var.rds -->
<g id="node29" class="node">
<title>[root] var.rds</title>
<polygon fill="none" stroke="black" points="209.5,-252 149.5,-252 149.5,-216 215.5,-216 215.5,-246 209.5,-252"/>
<polyline fill="none" stroke="black" points="209.5,-252 209.5,-246 "/>
<polyline fill="none" stroke="black" points="215.5,-246 209.5,-246 "/>
<text text-anchor="middle" x="182.5" y="-230.3" font-family="Times,serif" font-size="14.00">var.rds</text>
</g>
<!-- [root] aws_db_parameter_group.alpha (expand)&#45;&gt;[root] var.rds -->
<g id="edge5" class="edge">
<title>[root] aws_db_parameter_group.alpha (expand)&#45;&gt;[root] var.rds</title>
<path fill="none" stroke="black" d="M136.58,-287.7C143.89,-279.3 152.81,-269.07 160.84,-259.86"/>
<polygon fill="black" stroke="black" points="163.66,-261.94 167.59,-252.1 158.39,-257.34 163.66,-261.94"/>
</g>
<!-- [root] aws_subnet.alpha_prv (expand) -->
<g id="node16" class="node">
<title>[root] aws_subnet.alpha_prv (expand)</title>
<polygon fill="none" stroke="black" points="796.5,-252 622.5,-252 622.5,-216 796.5,-216 796.5,-252"/>
<text text-anchor="middle" x="709.5" y="-230.3" font-family="Times,serif" font-size="14.00">aws_subnet.alpha_prv</text>
</g>
<!-- [root] aws_db_subnet_group.alpha (expand)&#45;&gt;[root] aws_subnet.alpha_prv (expand) -->
<g id="edge6" class="edge">
<title>[root] aws_db_subnet_group.alpha (expand)&#45;&gt;[root] aws_subnet.alpha_prv (expand)</title>
<path fill="none" stroke="black" d="M650.03,-287.7C659.88,-278.97 671.99,-268.24 682.7,-258.75"/>
<polygon fill="black" stroke="black" points="685.03,-261.36 690.2,-252.1 680.39,-256.12 685.03,-261.36"/>
</g>
<!-- [root] aws_subnet.alpha_pub (expand) -->
<g id="node17" class="node">
<title>[root] aws_subnet.alpha_pub (expand)</title>
<polygon fill="none" stroke="black" points="1241,-252 1064,-252 1064,-216 1241,-216 1241,-252"/>
<text text-anchor="middle" x="1152.5" y="-230.3" font-family="Times,serif" font-size="14.00">aws_subnet.alpha_pub</text>
</g>
<!-- [root] aws_db_subnet_group.alpha (expand)&#45;&gt;[root] aws_subnet.alpha_pub (expand) -->
<g id="edge7" class="edge">
<title>[root] aws_db_subnet_group.alpha (expand)&#45;&gt;[root] aws_subnet.alpha_pub (expand)</title>
<path fill="none" stroke="black" d="M739.15,-289.24C742.3,-288.82 745.42,-288.4 748.5,-288 881.53,-270.62 917.88,-271.8 1054.01,-252.18"/>
<polygon fill="black" stroke="black" points="1054.59,-255.63 1063.99,-250.73 1053.59,-248.7 1054.59,-255.63"/>
</g>
<!-- [root] aws_eip.alpha (expand) -->
<g id="node4" class="node">
<title>[root] aws_eip.alpha (expand)</title>
<polygon fill="none" stroke="black" points="1131.5,-180 1015.5,-180 1015.5,-144 1131.5,-144 1131.5,-180"/>
<text text-anchor="middle" x="1073.5" y="-158.3" font-family="Times,serif" font-size="14.00">aws_eip.alpha</text>
</g>
<!-- [root] aws_eip.alpha (expand)&#45;&gt;[root] provider[&quot;registry.terraform.io/hashicorp/aws&quot;] -->
<g id="edge8" class="edge">
<title>[root] aws_eip.alpha (expand)&#45;&gt;[root] provider[&quot;registry.terraform.io/hashicorp/aws&quot;]</title>
<path fill="none" stroke="black" d="M1015.15,-145.63C1012.23,-145.04 1009.34,-144.49 1006.5,-144 876.8,-121.48 728.24,-107.92 617.62,-100.16"/>
<polygon fill="black" stroke="black" points="617.59,-96.65 607.38,-99.45 617.11,-103.63 617.59,-96.65"/>
</g>
<!-- [root] var.vpc -->
<g id="node31" class="node">
<title>[root] var.vpc</title>
<polygon fill="none" stroke="black" points="1033.5,-108 971.5,-108 971.5,-72 1039.5,-72 1039.5,-102 1033.5,-108"/>
<polyline fill="none" stroke="black" points="1033.5,-108 1033.5,-102 "/>
<polyline fill="none" stroke="black" points="1039.5,-102 1033.5,-102 "/>
<text text-anchor="middle" x="1005.5" y="-86.3" font-family="Times,serif" font-size="14.00">var.vpc</text>
</g>
<!-- [root] aws_eip.alpha (expand)&#45;&gt;[root] var.vpc -->
<g id="edge9" class="edge">
<title>[root] aws_eip.alpha (expand)&#45;&gt;[root] var.vpc</title>
<path fill="none" stroke="black" d="M1056.69,-143.7C1048.37,-135.14 1038.19,-124.66 1029.11,-115.3"/>
<polygon fill="black" stroke="black" points="1031.59,-112.84 1022.12,-108.1 1026.57,-117.72 1031.59,-112.84"/>
</g>
<!-- [root] aws_instance.alpha (expand) -->
<g id="node5" class="node">
<title>[root] aws_instance.alpha (expand)</title>
<polygon fill="none" stroke="black" points="1549,-396 1394,-396 1394,-360 1549,-360 1549,-396"/>
<text text-anchor="middle" x="1471.5" y="-374.3" font-family="Times,serif" font-size="14.00">aws_instance.alpha</text>
</g>
<!-- [root] aws_security_group.alpha_ec2 (expand) -->
<g id="node14" class="node">
<title>[root] aws_security_group.alpha_ec2 (expand)</title>
<polygon fill="none" stroke="black" points="1492,-252 1259,-252 1259,-216 1492,-216 1492,-252"/>
<text text-anchor="middle" x="1375.5" y="-230.3" font-family="Times,serif" font-size="14.00">aws_security_group.alpha_ec2</text>
</g>
<!-- [root] aws_instance.alpha (expand)&#45;&gt;[root] aws_security_group.alpha_ec2 (expand) -->
<g id="edge10" class="edge">
<title>[root] aws_instance.alpha (expand)&#45;&gt;[root] aws_security_group.alpha_ec2 (expand)</title>
<path fill="none" stroke="black" d="M1466.85,-359.8C1461.22,-340.99 1450.46,-310.53 1434.5,-288 1426.84,-277.18 1416.59,-267.01 1406.8,-258.52"/>
<polygon fill="black" stroke="black" points="1409.01,-255.81 1399.09,-252.1 1404.53,-261.19 1409.01,-255.81"/>
</g>
<!-- [root] aws_instance.alpha (expand)&#45;&gt;[root] aws_subnet.alpha_pub (expand) -->
<g id="edge11" class="edge">
<title>[root] aws_instance.alpha (expand)&#45;&gt;[root] aws_subnet.alpha_pub (expand)</title>
<path fill="none" stroke="black" d="M1458.94,-359.77C1440.92,-335.25 1409.05,-292.7 1401.5,-288 1388.37,-279.82 1315.12,-264.74 1251.44,-252.74"/>
<polygon fill="black" stroke="black" points="1251.79,-249.25 1241.31,-250.85 1250.5,-256.13 1251.79,-249.25"/>
</g>
<!-- [root] var.ec2 -->
<g id="node27" class="node">
<title>[root] var.ec2</title>
<polygon fill="none" stroke="black" points="1386.5,-324 1324.5,-324 1324.5,-288 1392.5,-288 1392.5,-318 1386.5,-324"/>
<polyline fill="none" stroke="black" points="1386.5,-324 1386.5,-318 "/>
<polyline fill="none" stroke="black" points="1392.5,-318 1386.5,-318 "/>
<text text-anchor="middle" x="1358.5" y="-302.3" font-family="Times,serif" font-size="14.00">var.ec2</text>
</g>
<!-- [root] aws_instance.alpha (expand)&#45;&gt;[root] var.ec2 -->
<g id="edge12" class="edge">
<title>[root] aws_instance.alpha (expand)&#45;&gt;[root] var.ec2</title>
<path fill="none" stroke="black" d="M1443.86,-359.88C1429.08,-350.72 1410.71,-339.34 1394.8,-329.48"/>
<polygon fill="black" stroke="black" points="1396.59,-326.48 1386.25,-324.19 1392.91,-332.43 1396.59,-326.48"/>
</g>
<!-- [root] aws_internet_gateway.alpha (expand) -->
<g id="node6" class="node">
<title>[root] aws_internet_gateway.alpha (expand)</title>
<polygon fill="none" stroke="black" points="1046,-252 829,-252 829,-216 1046,-216 1046,-252"/>
<text text-anchor="middle" x="937.5" y="-230.3" font-family="Times,serif" font-size="14.00">aws_internet_gateway.alpha</text>
</g>
<!-- [root] aws_vpc.alpha (expand) -->
<g id="node18" class="node">
<title>[root] aws_vpc.alpha (expand)</title>
<polygon fill="none" stroke="black" points="997,-180 878,-180 878,-144 997,-144 997,-180"/>
<text text-anchor="middle" x="937.5" y="-158.3" font-family="Times,serif" font-size="14.00">aws_vpc.alpha</text>
</g>
<!-- [root] aws_internet_gateway.alpha (expand)&#45;&gt;[root] aws_vpc.alpha (expand) -->
<g id="edge13" class="edge">
<title>[root] aws_internet_gateway.alpha (expand)&#45;&gt;[root] aws_vpc.alpha (expand)</title>
<path fill="none" stroke="black" d="M937.5,-215.7C937.5,-207.98 937.5,-198.71 937.5,-190.11"/>
<polygon fill="black" stroke="black" points="941,-190.1 937.5,-180.1 934,-190.1 941,-190.1"/>
</g>
<!-- [root] aws_nat_gateway.alpha (expand) -->
<g id="node7" class="node">
<title>[root] aws_nat_gateway.alpha (expand)</title>
<polygon fill="none" stroke="black" points="1668.5,-324 1486.5,-324 1486.5,-288 1668.5,-288 1668.5,-324"/>
<text text-anchor="middle" x="1577.5" y="-302.3" font-family="Times,serif" font-size="14.00">aws_nat_gateway.alpha</text>
</g>
<!-- [root] aws_nat_gateway.alpha (expand)&#45;&gt;[root] aws_eip.alpha (expand) -->
<g id="edge14" class="edge">
<title>[root] aws_nat_gateway.alpha (expand)&#45;&gt;[root] aws_eip.alpha (expand)</title>
<path fill="none" stroke="black" d="M1601.05,-287.66C1623.99,-268.73 1652.67,-238.17 1632.5,-216 1600.06,-180.34 1284.03,-168.15 1142.01,-164.44"/>
<polygon fill="black" stroke="black" points="1141.77,-160.94 1131.68,-164.18 1141.59,-167.93 1141.77,-160.94"/>
</g>
<!-- [root] aws_nat_gateway.alpha (expand)&#45;&gt;[root] aws_subnet.alpha_pub (expand) -->
<g id="edge15" class="edge">
<title>[root] aws_nat_gateway.alpha (expand)&#45;&gt;[root] aws_subnet.alpha_pub (expand)</title>
<path fill="none" stroke="black" d="M1486.19,-290.48C1423.02,-280.37 1336.73,-266.43 1251.07,-252.09"/>
<polygon fill="black" stroke="black" points="1251.61,-248.63 1241.17,-250.43 1250.45,-255.53 1251.61,-248.63"/>
</g>
<!-- [root] aws_route_table.alpha_prv (expand) -->
<g id="node8" class="node">
<title>[root] aws_route_table.alpha_prv (expand)</title>
<polygon fill="none" stroke="black" points="1040.5,-324 834.5,-324 834.5,-288 1040.5,-288 1040.5,-324"/>
<text text-anchor="middle" x="937.5" y="-302.3" font-family="Times,serif" font-size="14.00">aws_route_table.alpha_prv</text>
</g>
<!-- [root] aws_route_table.alpha_prv (expand)&#45;&gt;[root] aws_internet_gateway.alpha (expand) -->
<g id="edge16" class="edge">
<title>[root] aws_route_table.alpha_prv (expand)&#45;&gt;[root] aws_internet_gateway.alpha (expand)</title>
<path fill="none" stroke="black" d="M937.5,-287.7C937.5,-279.98 937.5,-270.71 937.5,-262.11"/>
<polygon fill="black" stroke="black" points="941,-262.1 937.5,-252.1 934,-262.1 941,-262.1"/>
</g>
<!-- [root] aws_route_table.alpha_pub (expand) -->
<g id="node9" class="node">
<title>[root] aws_route_table.alpha_pub (expand)</title>
<polygon fill="none" stroke="black" points="1268,-324 1059,-324 1059,-288 1268,-288 1268,-324"/>
<text text-anchor="middle" x="1163.5" y="-302.3" font-family="Times,serif" font-size="14.00">aws_route_table.alpha_pub</text>
</g>
<!-- [root] aws_route_table.alpha_pub (expand)&#45;&gt;[root] aws_internet_gateway.alpha (expand) -->
<g id="edge17" class="edge">
<title>[root] aws_route_table.alpha_pub (expand)&#45;&gt;[root] aws_internet_gateway.alpha (expand)</title>
<path fill="none" stroke="black" d="M1108.5,-287.97C1076.51,-278.06 1036.02,-265.51 1002.46,-255.12"/>
<polygon fill="black" stroke="black" points="1003.33,-251.73 992.74,-252.11 1001.26,-258.41 1003.33,-251.73"/>
</g>
<!-- [root] aws_route_table_association.alpha_prv (expand) -->
<g id="node10" class="node">
<title>[root] aws_route_table_association.alpha_prv (expand)</title>
<polygon fill="none" stroke="black" points="1061,-396 768,-396 768,-360 1061,-360 1061,-396"/>
<text text-anchor="middle" x="914.5" y="-374.3" font-family="Times,serif" font-size="14.00">aws_route_table_association.alpha_prv</text>
</g>
<!-- [root] aws_route_table_association.alpha_prv (expand)&#45;&gt;[root] aws_route_table.alpha_prv (expand) -->
<g id="edge18" class="edge">
<title>[root] aws_route_table_association.alpha_prv (expand)&#45;&gt;[root] aws_route_table.alpha_prv (expand)</title>
<path fill="none" stroke="black" d="M920.19,-359.7C922.75,-351.9 925.83,-342.51 928.68,-333.83"/>
<polygon fill="black" stroke="black" points="932.08,-334.7 931.88,-324.1 925.43,-332.51 932.08,-334.7"/>
</g>
<!-- [root] aws_route_table_association.alpha_prv (expand)&#45;&gt;[root] aws_subnet.alpha_prv (expand) -->
<g id="edge19" class="edge">
<title>[root] aws_route_table_association.alpha_prv (expand)&#45;&gt;[root] aws_subnet.alpha_prv (expand)</title>
<path fill="none" stroke="black" d="M768.82,-359.98C655.91,-346.44 517.86,-328.97 513.5,-324 502.95,-311.97 503.77,-300.7 513.5,-288 520.45,-278.92 570.75,-265.42 618.64,-254.32"/>
<polygon fill="black" stroke="black" points="619.53,-257.71 628.49,-252.06 617.96,-250.88 619.53,-257.71"/>
</g>
<!-- [root] aws_route_table_association.alpha_pub (expand) -->
<g id="node11" class="node">
<title>[root] aws_route_table_association.alpha_pub (expand)</title>
<polygon fill="none" stroke="black" points="1375.5,-396 1079.5,-396 1079.5,-360 1375.5,-360 1375.5,-396"/>
<text text-anchor="middle" x="1227.5" y="-374.3" font-family="Times,serif" font-size="14.00">aws_route_table_association.alpha_pub</text>
</g>
<!-- [root] aws_route_table_association.alpha_pub (expand)&#45;&gt;[root] aws_route_table.alpha_pub (expand) -->
<g id="edge20" class="edge">
<title>[root] aws_route_table_association.alpha_pub (expand)&#45;&gt;[root] aws_route_table.alpha_pub (expand)</title>
<path fill="none" stroke="black" d="M1211.68,-359.7C1203.93,-351.22 1194.46,-340.86 1185.98,-331.58"/>
<polygon fill="black" stroke="black" points="1188.47,-329.12 1179.14,-324.1 1183.3,-333.85 1188.47,-329.12"/>
</g>
<!-- [root] aws_route_table_association.alpha_pub (expand)&#45;&gt;[root] aws_subnet.alpha_pub (expand) -->
<g id="edge21" class="edge">
<title>[root] aws_route_table_association.alpha_pub (expand)&#45;&gt;[root] aws_subnet.alpha_pub (expand)</title>
<path fill="none" stroke="black" d="M1248.82,-359.83C1268.82,-341.58 1293.45,-312.09 1277.5,-288 1268.39,-274.25 1254.93,-264.05 1240.16,-256.5"/>
<polygon fill="black" stroke="black" points="1241.37,-253.2 1230.83,-252.13 1238.4,-259.54 1241.37,-253.2"/>
</g>
<!-- [root] aws_s3_bucket.alpha (expand) -->
<g id="node12" class="node">
<title>[root] aws_s3_bucket.alpha (expand)</title>
<polygon fill="none" stroke="black" points="427.5,-324 261.5,-324 261.5,-288 427.5,-288 427.5,-324"/>
<text text-anchor="middle" x="344.5" y="-302.3" font-family="Times,serif" font-size="14.00">aws_s3_bucket.alpha</text>
</g>
<!-- [root] aws_s3_bucket.alpha (expand)&#45;&gt;[root] provider[&quot;registry.terraform.io/hashicorp/aws&quot;] -->
<g id="edge22" class="edge">
<title>[root] aws_s3_bucket.alpha (expand)&#45;&gt;[root] provider[&quot;registry.terraform.io/hashicorp/aws&quot;]</title>
<path fill="none" stroke="black" d="M346.31,-287.98C348.73,-269.59 353.98,-239.74 364.5,-216 381.43,-177.8 410.82,-139.31 430.94,-115.33"/>
<polygon fill="black" stroke="black" points="433.81,-117.36 437.64,-107.48 428.48,-112.82 433.81,-117.36"/>
</g>
<!-- [root] aws_s3_bucket_acl.alpha (expand) -->
<g id="node13" class="node">
<title>[root] aws_s3_bucket_acl.alpha (expand)</title>
<polygon fill="none" stroke="black" points="750,-396 557,-396 557,-360 750,-360 750,-396"/>
<text text-anchor="middle" x="653.5" y="-374.3" font-family="Times,serif" font-size="14.00">aws_s3_bucket_acl.alpha</text>
</g>
<!-- [root] aws_s3_bucket_acl.alpha (expand)&#45;&gt;[root] aws_s3_bucket.alpha (expand) -->
<g id="edge23" class="edge">
<title>[root] aws_s3_bucket_acl.alpha (expand)&#45;&gt;[root] aws_s3_bucket.alpha (expand)</title>
<path fill="none" stroke="black" d="M578.31,-359.97C533.36,-349.78 476.13,-336.82 429.54,-326.26"/>
<polygon fill="black" stroke="black" points="430.29,-322.85 419.76,-324.05 428.74,-329.67 430.29,-322.85"/>
</g>
<!-- [root] var.s3 -->
<g id="node30" class="node">
<title>[root] var.s3</title>
<polygon fill="none" stroke="black" points="810,-324 757,-324 757,-288 816,-288 816,-318 810,-324"/>
<polyline fill="none" stroke="black" points="810,-324 810,-318 "/>
<polyline fill="none" stroke="black" points="816,-318 810,-318 "/>
<text text-anchor="middle" x="786.5" y="-302.3" font-family="Times,serif" font-size="14.00">var.s3</text>
</g>
<!-- [root] aws_s3_bucket_acl.alpha (expand)&#45;&gt;[root] var.s3 -->
<g id="edge24" class="edge">
<title>[root] aws_s3_bucket_acl.alpha (expand)&#45;&gt;[root] var.s3</title>
<path fill="none" stroke="black" d="M686.04,-359.88C704.62,-350.09 728.05,-337.76 747.61,-327.47"/>
<polygon fill="black" stroke="black" points="749.36,-330.5 756.57,-322.75 746.1,-324.31 749.36,-330.5"/>
</g>
<!-- [root] aws_security_group.alpha_ec2 (expand)&#45;&gt;[root] aws_vpc.alpha (expand) -->
<g id="edge25" class="edge">
<title>[root] aws_security_group.alpha_ec2 (expand)&#45;&gt;[root] aws_vpc.alpha (expand)</title>
<path fill="none" stroke="black" d="M1258.57,-216.8C1167.84,-204.13 1051.46,-187.66 1007.13,-179.92"/>
<polygon fill="black" stroke="black" points="1007.73,-176.47 997.26,-178.11 1006.46,-183.36 1007.73,-176.47"/>
</g>
<!-- [root] aws_security_group.alpha_rds (expand)&#45;&gt;[root] aws_vpc.alpha (expand) -->
<g id="edge26" class="edge">
<title>[root] aws_security_group.alpha_rds (expand)&#45;&gt;[root] aws_vpc.alpha (expand)</title>
<path fill="none" stroke="black" d="M597.76,-215.97C681.93,-202.84 795.75,-185.1 867.91,-173.85"/>
<polygon fill="black" stroke="black" points="868.46,-177.31 877.8,-172.31 867.38,-170.39 868.46,-177.31"/>
</g>
<!-- [root] aws_subnet.alpha_prv (expand)&#45;&gt;[root] aws_vpc.alpha (expand) -->
<g id="edge27" class="edge">
<title>[root] aws_subnet.alpha_prv (expand)&#45;&gt;[root] aws_vpc.alpha (expand)</title>
<path fill="none" stroke="black" d="M764.98,-215.97C797.26,-206.06 838.11,-193.51 871.96,-183.12"/>
<polygon fill="black" stroke="black" points="873.24,-186.39 881.77,-180.11 871.18,-179.7 873.24,-186.39"/>
</g>
<!-- [root] aws_subnet.alpha_pub (expand)&#45;&gt;[root] aws_vpc.alpha (expand) -->
<g id="edge28" class="edge">
<title>[root] aws_subnet.alpha_pub (expand)&#45;&gt;[root] aws_vpc.alpha (expand)</title>
<path fill="none" stroke="black" d="M1100.18,-215.97C1069.88,-206.1 1031.55,-193.62 999.71,-183.25"/>
<polygon fill="black" stroke="black" points="1000.65,-179.88 990.05,-180.11 998.48,-186.53 1000.65,-179.88"/>
</g>
<!-- [root] aws_vpc.alpha (expand)&#45;&gt;[root] provider[&quot;registry.terraform.io/hashicorp/aws&quot;] -->
<g id="edge29" class="edge">
<title>[root] aws_vpc.alpha (expand)&#45;&gt;[root] provider[&quot;registry.terraform.io/hashicorp/aws&quot;]</title>
<path fill="none" stroke="black" d="M877.54,-152.35C795.09,-140.45 645.81,-118.9 547.92,-104.77"/>
<polygon fill="black" stroke="black" points="548.42,-101.31 538.02,-103.34 547.42,-108.24 548.42,-101.31"/>
</g>
<!-- [root] aws_vpc.alpha (expand)&#45;&gt;[root] var.vpc -->
<g id="edge30" class="edge">
<title>[root] aws_vpc.alpha (expand)&#45;&gt;[root] var.vpc</title>
<path fill="none" stroke="black" d="M954.31,-143.7C962.63,-135.14 972.81,-124.66 981.89,-115.3"/>
<polygon fill="black" stroke="black" points="984.43,-117.72 988.88,-108.1 979.41,-112.84 984.43,-117.72"/>
</g>
<!-- [root] output.ec2_id -->
<g id="node19" class="node">
<title>[root] output.ec2_id</title>
<polygon fill="none" stroke="black" points="1522,-468 1415,-468 1415,-432 1528,-432 1528,-462 1522,-468"/>
<polyline fill="none" stroke="black" points="1522,-468 1522,-462 "/>
<polyline fill="none" stroke="black" points="1528,-462 1522,-462 "/>
<text text-anchor="middle" x="1471.5" y="-446.3" font-family="Times,serif" font-size="14.00">output.ec2_id</text>
</g>
<!-- [root] output.ec2_id&#45;&gt;[root] aws_instance.alpha (expand) -->
<g id="edge31" class="edge">
<title>[root] output.ec2_id&#45;&gt;[root] aws_instance.alpha (expand)</title>
<path fill="none" stroke="black" d="M1471.5,-431.7C1471.5,-423.98 1471.5,-414.71 1471.5,-406.11"/>
<polygon fill="black" stroke="black" points="1475,-406.1 1471.5,-396.1 1468,-406.1 1475,-406.1"/>
</g>
<!-- [root] output.ec2_ip -->
<g id="node20" class="node">
<title>[root] output.ec2_ip</title>
<polygon fill="none" stroke="black" points="1653,-468 1546,-468 1546,-432 1659,-432 1659,-462 1653,-468"/>
<polyline fill="none" stroke="black" points="1653,-468 1653,-462 "/>
<polyline fill="none" stroke="black" points="1659,-462 1653,-462 "/>
<text text-anchor="middle" x="1602.5" y="-446.3" font-family="Times,serif" font-size="14.00">output.ec2_ip</text>
</g>
<!-- [root] output.ec2_ip&#45;&gt;[root] aws_instance.alpha (expand) -->
<g id="edge32" class="edge">
<title>[root] output.ec2_ip&#45;&gt;[root] aws_instance.alpha (expand)</title>
<path fill="none" stroke="black" d="M1570.45,-431.88C1553.01,-422.55 1531.23,-410.92 1512.56,-400.94"/>
<polygon fill="black" stroke="black" points="1514.14,-397.82 1503.67,-396.19 1510.84,-403.99 1514.14,-397.82"/>
</g>
<!-- [root] output.rds_hostname -->
<g id="node21" class="node">
<title>[root] output.rds_hostname</title>
<polygon fill="none" stroke="black" points="789.5,-468 627.5,-468 627.5,-432 795.5,-432 795.5,-462 789.5,-468"/>
<polyline fill="none" stroke="black" points="789.5,-468 789.5,-462 "/>
<polyline fill="none" stroke="black" points="795.5,-462 789.5,-462 "/>
<text text-anchor="middle" x="711.5" y="-446.3" font-family="Times,serif" font-size="14.00">output.rds_hostname</text>
</g>
<!-- [root] output.rds_hostname&#45;&gt;[root] aws_db_instance.alpha (expand) -->
<g id="edge33" class="edge">
<title>[root] output.rds_hostname&#45;&gt;[root] aws_db_instance.alpha (expand)</title>
<path fill="none" stroke="black" d="M647.74,-431.97C610.18,-421.93 562.5,-409.19 523.31,-398.72"/>
<polygon fill="black" stroke="black" points="524.11,-395.31 513.54,-396.11 522.3,-402.07 524.11,-395.31"/>
</g>
<!-- [root] output.rds_port -->
<g id="node22" class="node">
<title>[root] output.rds_port</title>
<polygon fill="none" stroke="black" points="416.5,-468 294.5,-468 294.5,-432 422.5,-432 422.5,-462 416.5,-468"/>
<polyline fill="none" stroke="black" points="416.5,-468 416.5,-462 "/>
<polyline fill="none" stroke="black" points="422.5,-462 416.5,-462 "/>
<text text-anchor="middle" x="358.5" y="-446.3" font-family="Times,serif" font-size="14.00">output.rds_port</text>
</g>
<!-- [root] output.rds_port&#45;&gt;[root] aws_db_instance.alpha (expand) -->
<g id="edge34" class="edge">
<title>[root] output.rds_port&#45;&gt;[root] aws_db_instance.alpha (expand)</title>
<path fill="none" stroke="black" d="M380.99,-431.7C392.46,-422.88 406.56,-412.03 418.98,-402.47"/>
<polygon fill="black" stroke="black" points="421.47,-404.98 427.26,-396.1 417.2,-399.43 421.47,-404.98"/>
</g>
<!-- [root] output.rds_username -->
<g id="node23" class="node">
<title>[root] output.rds_username</title>
<polygon fill="none" stroke="black" points="604,-468 441,-468 441,-432 610,-432 610,-462 604,-468"/>
<polyline fill="none" stroke="black" points="604,-468 604,-462 "/>
<polyline fill="none" stroke="black" points="610,-462 604,-462 "/>
<text text-anchor="middle" x="525.5" y="-446.3" font-family="Times,serif" font-size="14.00">output.rds_username</text>
</g>
<!-- [root] output.rds_username&#45;&gt;[root] aws_db_instance.alpha (expand) -->
<g id="edge35" class="edge">
<title>[root] output.rds_username&#45;&gt;[root] aws_db_instance.alpha (expand)</title>
<path fill="none" stroke="black" d="M506.71,-431.7C497.33,-423.05 485.82,-412.45 475.59,-403.03"/>
<polygon fill="black" stroke="black" points="477.8,-400.3 468.07,-396.1 473.05,-405.45 477.8,-400.3"/>
</g>
<!-- [root] output.s3_id -->
<g id="node24" class="node">
<title>[root] output.s3_id</title>
<polygon fill="none" stroke="black" points="325,-396 226,-396 226,-360 331,-360 331,-390 325,-396"/>
<polyline fill="none" stroke="black" points="325,-396 325,-390 "/>
<polyline fill="none" stroke="black" points="331,-390 325,-390 "/>
<text text-anchor="middle" x="278.5" y="-374.3" font-family="Times,serif" font-size="14.00">output.s3_id</text>
</g>
<!-- [root] output.s3_id&#45;&gt;[root] aws_s3_bucket.alpha (expand) -->
<g id="edge36" class="edge">
<title>[root] output.s3_id&#45;&gt;[root] aws_s3_bucket.alpha (expand)</title>
<path fill="none" stroke="black" d="M294.81,-359.7C302.81,-351.22 312.57,-340.86 321.32,-331.58"/>
<polygon fill="black" stroke="black" points="324.06,-333.78 328.37,-324.1 318.97,-328.98 324.06,-333.78"/>
</g>
<!-- [root] output.vpc_id -->
<g id="node25" class="node">
<title>[root] output.vpc_id</title>
<polygon fill="none" stroke="black" points="1617,-252 1510,-252 1510,-216 1623,-216 1623,-246 1617,-252"/>
<polyline fill="none" stroke="black" points="1617,-252 1617,-246 "/>
<polyline fill="none" stroke="black" points="1623,-246 1617,-246 "/>
<text text-anchor="middle" x="1566.5" y="-230.3" font-family="Times,serif" font-size="14.00">output.vpc_id</text>
</g>
<!-- [root] output.vpc_id&#45;&gt;[root] aws_vpc.alpha (expand) -->
<g id="edge37" class="edge">
<title>[root] output.vpc_id&#45;&gt;[root] aws_vpc.alpha (expand)</title>
<path fill="none" stroke="black" d="M1509.91,-217.55C1507.08,-216.98 1504.26,-216.46 1501.5,-216 1287.18,-180.49 1226.2,-213.48 1007.41,-179.96"/>
<polygon fill="black" stroke="black" points="1007.63,-176.45 997.21,-178.37 1006.55,-183.37 1007.63,-176.45"/>
</g>
<!-- [root] var.global -->
<g id="node28" class="node">
<title>[root] var.global</title>
<polygon fill="none" stroke="black" points="489.5,-36 409.5,-36 409.5,0 495.5,0 495.5,-30 489.5,-36"/>
<polyline fill="none" stroke="black" points="489.5,-36 489.5,-30 "/>
<polyline fill="none" stroke="black" points="495.5,-30 489.5,-30 "/>
<text text-anchor="middle" x="452.5" y="-14.3" font-family="Times,serif" font-size="14.00">var.global</text>
</g>
<!-- [root] provider[&quot;registry.terraform.io/hashicorp/aws&quot;]&#45;&gt;[root] var.global -->
<g id="edge44" class="edge">
<title>[root] provider[&quot;registry.terraform.io/hashicorp/aws&quot;]&#45;&gt;[root] var.global</title>
<path fill="none" stroke="black" d="M452.5,-71.7C452.5,-63.98 452.5,-54.71 452.5,-46.11"/>
<polygon fill="black" stroke="black" points="456,-46.1 452.5,-36.1 449,-46.1 456,-46.1"/>
</g>
<!-- [root] provider[&quot;registry.terraform.io/hashicorp/aws&quot;] (close) -->
<g id="node32" class="node">
<title>[root] provider[&quot;registry.terraform.io/hashicorp/aws&quot;] (close)</title>
<ellipse fill="none" stroke="black" cx="1105.5" cy="-450" rx="291.65" ry="18"/>
<text text-anchor="middle" x="1105.5" y="-446.3" font-family="Times,serif" font-size="14.00">[root] provider[&quot;registry.terraform.io/hashicorp/aws&quot;] (close)</text>
</g>
<!-- [root] provider[&quot;registry.terraform.io/hashicorp/aws&quot;] (close)&#45;&gt;[root] aws_db_instance.alpha (expand) -->
<g id="edge38" class="edge">
<title>[root] provider[&quot;registry.terraform.io/hashicorp/aws&quot;] (close)&#45;&gt;[root] aws_db_instance.alpha (expand)</title>
<path fill="none" stroke="black" d="M929.2,-435.64C822.12,-426.69 682.49,-413.58 549.04,-396.01"/>
<polygon fill="black" stroke="black" points="549.41,-392.53 539.03,-394.68 548.49,-399.47 549.41,-392.53"/>
</g>
<!-- [root] provider[&quot;registry.terraform.io/hashicorp/aws&quot;] (close)&#45;&gt;[root] aws_instance.alpha (expand) -->
<g id="edge39" class="edge">
<title>[root] provider[&quot;registry.terraform.io/hashicorp/aws&quot;] (close)&#45;&gt;[root] aws_instance.alpha (expand)</title>
<path fill="none" stroke="black" d="M1191.62,-432.76C1244.29,-422.8 1313.34,-409.69 1383.77,-396.14"/>
<polygon fill="black" stroke="black" points="1384.56,-399.55 1393.72,-394.22 1383.23,-392.67 1384.56,-399.55"/>
</g>
<!-- [root] provider[&quot;registry.terraform.io/hashicorp/aws&quot;] (close)&#45;&gt;[root] aws_nat_gateway.alpha (expand) -->
<g id="edge40" class="edge">
<title>[root] provider[&quot;registry.terraform.io/hashicorp/aws&quot;] (close)&#45;&gt;[root] aws_nat_gateway.alpha (expand)</title>
<path fill="none" stroke="black" d="M1301.46,-436.63C1414.77,-427.64 1538.81,-413.92 1558.5,-396 1575.34,-380.67 1579.24,-354.4 1579.43,-334.36"/>
<polygon fill="black" stroke="black" points="1582.93,-334.19 1579.23,-324.26 1575.93,-334.33 1582.93,-334.19"/>
</g>
<!-- [root] provider[&quot;registry.terraform.io/hashicorp/aws&quot;] (close)&#45;&gt;[root] aws_route_table_association.alpha_prv (expand) -->
<g id="edge41" class="edge">
<title>[root] provider[&quot;registry.terraform.io/hashicorp/aws&quot;] (close)&#45;&gt;[root] aws_route_table_association.alpha_prv (expand)</title>
<path fill="none" stroke="black" d="M1059.26,-432.05C1032.6,-422.28 998.88,-409.92 970.69,-399.59"/>
<polygon fill="black" stroke="black" points="971.57,-396.19 960.97,-396.03 969.16,-402.76 971.57,-396.19"/>
</g>
<!-- [root] provider[&quot;registry.terraform.io/hashicorp/aws&quot;] (close)&#45;&gt;[root] aws_route_table_association.alpha_pub (expand) -->
<g id="edge42" class="edge">
<title>[root] provider[&quot;registry.terraform.io/hashicorp/aws&quot;] (close)&#45;&gt;[root] aws_route_table_association.alpha_pub (expand)</title>
<path fill="none" stroke="black" d="M1135.03,-432.05C1151.25,-422.75 1171.55,-411.11 1188.99,-401.1"/>
<polygon fill="black" stroke="black" points="1190.88,-404.04 1197.82,-396.03 1187.4,-397.97 1190.88,-404.04"/>
</g>
<!-- [root] provider[&quot;registry.terraform.io/hashicorp/aws&quot;] (close)&#45;&gt;[root] aws_s3_bucket_acl.alpha (expand) -->
<g id="edge43" class="edge">
<title>[root] provider[&quot;registry.terraform.io/hashicorp/aws&quot;] (close)&#45;&gt;[root] aws_s3_bucket_acl.alpha (expand)</title>
<path fill="none" stroke="black" d="M1001,-433.19C934.88,-423.14 847.33,-409.74 760.32,-396.12"/>
<polygon fill="black" stroke="black" points="760.68,-392.64 750.26,-394.55 759.6,-399.55 760.68,-392.64"/>
</g>
<!-- [root] root -->
<g id="node33" class="node">
<title>[root] root</title>
<ellipse fill="none" stroke="black" cx="908.5" cy="-522" rx="58.49" ry="18"/>
<text text-anchor="middle" x="908.5" y="-518.3" font-family="Times,serif" font-size="14.00">[root] root</text>
</g>
<!-- [root] root&#45;&gt;[root] output.ec2_id -->
<g id="edge45" class="edge">
<title>[root] root&#45;&gt;[root] output.ec2_id</title>
<path fill="none" stroke="black" d="M965.66,-517.71C1056.76,-511.85 1240.54,-497.55 1404.61,-468.2"/>
<polygon fill="black" stroke="black" points="1405.68,-471.57 1414.89,-466.34 1404.43,-464.68 1405.68,-471.57"/>
</g>
<!-- [root] root&#45;&gt;[root] output.ec2_ip -->
<g id="edge46" class="edge">
<title>[root] root&#45;&gt;[root] output.ec2_ip</title>
<path fill="none" stroke="black" d="M966.59,-519.43C1076.36,-515.75 1321.74,-504.08 1536.05,-468.09"/>
<polygon fill="black" stroke="black" points="1536.63,-471.54 1545.9,-466.41 1535.46,-464.64 1536.63,-471.54"/>
</g>
<!-- [root] root&#45;&gt;[root] output.rds_hostname -->
<g id="edge47" class="edge">
<title>[root] root&#45;&gt;[root] output.rds_hostname</title>
<path fill="none" stroke="black" d="M871.45,-507.83C842.64,-497.6 802.15,-483.21 769.12,-471.47"/>
<polygon fill="black" stroke="black" points="770.17,-468.13 759.57,-468.08 767.82,-474.73 770.17,-468.13"/>
</g>
<!-- [root] root&#45;&gt;[root] output.rds_port -->
<g id="edge48" class="edge">
<title>[root] root&#45;&gt;[root] output.rds_port</title>
<path fill="none" stroke="black" d="M852.15,-516.84C762.76,-509.76 583.13,-493.6 432.5,-468 432.4,-467.98 432.3,-467.97 432.2,-467.95"/>
<polygon fill="black" stroke="black" points="433.05,-464.55 422.58,-466.2 431.8,-471.43 433.05,-464.55"/>
</g>
<!-- [root] root&#45;&gt;[root] output.rds_username -->
<g id="edge49" class="edge">
<title>[root] root&#45;&gt;[root] output.rds_username</title>
<path fill="none" stroke="black" d="M859.6,-512.06C799.48,-501.08 696.11,-482.18 620.23,-468.31"/>
<polygon fill="black" stroke="black" points="620.64,-464.83 610.18,-466.48 619.39,-471.72 620.64,-464.83"/>
</g>
<!-- [root] root&#45;&gt;[root] output.s3_id -->
<g id="edge50" class="edge">
<title>[root] root&#45;&gt;[root] output.s3_id</title>
<path fill="none" stroke="black" d="M850.19,-520.25C702.92,-517.77 324.83,-507.58 285.5,-468 269.76,-452.16 269.52,-425.95 272.32,-406.07"/>
<polygon fill="black" stroke="black" points="275.8,-406.51 274.05,-396.06 268.9,-405.31 275.8,-406.51"/>
</g>
<!-- [root] root&#45;&gt;[root] output.vpc_id -->
<g id="edge51" class="edge">
<title>[root] root&#45;&gt;[root] output.vpc_id</title>
<path fill="none" stroke="black" d="M967.04,-521.25C1136.64,-521.4 1619.43,-517.42 1668.5,-468 1724.93,-411.16 1720.23,-355.75 1677.5,-288 1667.12,-271.54 1650.07,-260.09 1632.41,-252.15"/>
<polygon fill="black" stroke="black" points="1633.73,-248.91 1623.15,-248.32 1631.05,-255.38 1633.73,-248.91"/>
</g>
<!-- [root] root&#45;&gt;[root] provider[&quot;registry.terraform.io/hashicorp/aws&quot;] (close) -->
<g id="edge52" class="edge">
<title>[root] root&#45;&gt;[root] provider[&quot;registry.terraform.io/hashicorp/aws&quot;] (close)</title>
<path fill="none" stroke="black" d="M945.55,-507.83C974.57,-497.52 1015.42,-483.01 1048.58,-471.23"/>
<polygon fill="black" stroke="black" points="1049.9,-474.47 1058.15,-467.82 1047.56,-467.87 1049.9,-474.47"/>
</g>
</g>
</svg>
